<svg width="15" height="8" viewBox="0 0 15 8" fill="none" xmlns="http://www.w3.org/2000/svg">
<path d="M7.19386 7.77776C7.00467 7.77874 6.81711 7.74606 6.64196 7.6816C6.46681 7.61713 6.3075 7.52215 6.17317 7.40209L0.422785 2.22045C0.288746 2.09967 0.18242 1.95628 0.109879 1.79847C0.0373371 1.64066 2.82467e-09 1.47152 0 1.30071C-2.82467e-09 1.1299 0.0373371 0.960758 0.109879 0.802949C0.18242 0.645139 0.288746 0.501751 0.422785 0.380969C0.556825 0.260186 0.715952 0.164377 0.891083 0.0990098C1.06621 0.033643 1.25392 -2.54529e-09 1.44348 0C1.63304 2.54529e-09 1.82074 0.033643 1.99587 0.0990098C2.17101 0.164377 2.33013 0.260186 2.46417 0.380969L7.19386 4.66877L11.9379 0.549372C12.0702 0.416865 12.2313 0.310371 12.4113 0.23655C12.5914 0.16273 12.7863 0.123172 12.9841 0.120349C13.1818 0.117526 13.3781 0.151498 13.5606 0.220143C13.7431 0.288788 13.9079 0.390629 14.0448 0.519295C14.1816 0.647961 14.2875 0.800684 14.3559 0.967914C14.4242 1.13514 14.4535 1.31328 14.442 1.49119C14.4305 1.6691 14.3783 1.84294 14.2888 2.00186C14.1993 2.16077 14.0744 2.30134 13.9218 2.41476L8.17143 7.41504C7.90853 7.64344 7.55902 7.77312 7.19386 7.77776Z" fill="currentColor"/>
</svg>
