<svg width="8" height="15" viewBox="0 0 8 15" fill="none" xmlns="http://www.w3.org/2000/svg">
<path d="M8.1761e-05 7.21173C-0.00205595 7.40091 0.0294785 7.58866 0.0928763 7.7642C0.156274 7.93975 0.250288 8.09963 0.369528 8.23469L5.51605 14.0165C5.63602 14.1513 5.77875 14.2585 5.93612 14.332C6.09348 14.4055 6.26239 14.4439 6.4332 14.4449C6.60401 14.4459 6.77337 14.4096 6.93162 14.3381C7.08987 14.2665 7.2339 14.161 7.3555 14.0277C7.4771 13.8944 7.57387 13.7359 7.6403 13.5612C7.70674 13.3864 7.74152 13.1989 7.74268 13.0094C7.74383 12.8198 7.71133 12.6319 7.64703 12.4564C7.58273 12.2809 7.48789 12.1211 7.36793 11.9864L3.10901 7.23066L7.25722 2.51176C7.39053 2.38033 7.498 2.21981 7.57292 2.04026C7.64783 1.86071 7.68858 1.66598 7.69261 1.46825C7.69663 1.27053 7.66386 1.07406 7.59632 0.891133C7.52879 0.708208 7.42796 0.542764 7.30013 0.405144C7.1723 0.267524 7.02022 0.16069 6.85341 0.0913245C6.6866 0.0219595 6.50864 -0.00844353 6.33067 0.00201332C6.1527 0.0124711 5.97853 0.0635661 5.81908 0.152102C5.65962 0.240638 5.5183 0.364709 5.40395 0.516559L0.368742 6.23639C0.138745 6.49789 0.00693725 6.84661 8.1761e-05 7.21173Z" fill="currentColor"/>
</svg>
