<svg width="8" height="15" viewBox="0 0 8 15" fill="none" xmlns="http://www.w3.org/2000/svg">
<path d="M7.74259 7.21173C7.74473 7.40091 7.7132 7.58866 7.6498 7.7642C7.5864 7.93975 7.49239 8.09963 7.37315 8.23469L2.22662 14.0165C2.10666 14.1513 1.96392 14.2585 1.80656 14.332C1.64919 14.4055 1.48028 14.4439 1.30947 14.4449C1.13867 14.4459 0.969302 14.4096 0.811054 14.3381C0.652805 14.2665 0.508772 14.161 0.387176 14.0277C0.26558 13.8944 0.168803 13.7359 0.102371 13.5612C0.0359388 13.3864 0.0011534 13.1989 -9.13848e-07 13.0094C-0.00115523 12.8198 0.0313441 12.6319 0.0956433 12.4564C0.159942 12.2809 0.254781 12.1211 0.374745 11.9864L4.63367 7.23066L0.485455 2.51176C0.352145 2.38033 0.244672 2.21981 0.169757 2.04026C0.0948419 1.86071 0.0540971 1.66598 0.0500699 1.46825C0.0460428 1.27053 0.0788193 1.07406 0.146352 0.891133C0.213884 0.708208 0.314719 0.542764 0.442549 0.405144C0.57038 0.267524 0.722455 0.16069 0.889266 0.0913245C1.05608 0.0219595 1.23403 -0.00844353 1.41201 0.00201332C1.58998 0.0124711 1.76414 0.0635661 1.9236 0.152102C2.08306 0.240638 2.22438 0.364709 2.33873 0.516559L7.37393 6.23639C7.60393 6.49789 7.73574 6.84661 7.74259 7.21173Z" fill="currentColor"/>
</svg>
