<svg width="16" height="16" viewBox="0 0 16 16" fill="none" xmlns="http://www.w3.org/2000/svg">
  <path d="M15.5644 12.0764C15.3873 11.8779 14.762 11.2907 13.6125 10.5139C12.4545 9.73031 11.6005 9.24173 11.3555 9.1278C11.3339 9.11772 11.3101 9.11402 11.2867 9.11711C11.2632 9.12019 11.241 9.12994 11.2225 9.1453C10.8279 9.46924 10.1635 10.0642 10.1279 10.0964C9.89787 10.3039 9.89788 10.3039 9.70957 10.2393C9.37842 10.125 8.34967 9.54995 7.45326 8.60422C6.55684 7.65849 5.98242 6.54882 5.87384 6.2006C5.81175 6.00203 5.81175 6.00203 6.00956 5.75988C6.04009 5.72238 6.6057 5.02308 6.91344 4.60807C6.92803 4.58853 6.93729 4.56517 6.94022 4.5405C6.94315 4.51583 6.93964 4.49079 6.93007 4.46807C6.82183 4.20985 6.35767 3.31126 5.61326 2.09231C4.87428 0.882643 4.31716 0.224417 4.12851 0.0379845C4.1112 0.0207888 4.0898 0.0088265 4.06657 0.00335809C4.04334 -0.00211033 4.01914 -0.00088235 3.99652 0.0069125C3.3371 0.245447 2.70085 0.549815 2.09647 0.915858C1.51303 1.27287 0.960663 1.6834 0.445804 2.14267C0.427831 2.15875 0.414357 2.17968 0.406825 2.20321C0.399294 2.22674 0.39799 2.25199 0.403053 2.27624C0.473965 2.6241 0.812921 4.07628 1.86473 6.08774C2.93792 8.14064 3.68166 9.19244 5.25768 10.8457C6.83371 12.4989 7.86448 13.329 9.81678 14.4586C11.7277 15.5658 13.1079 15.9229 13.4377 15.9969C13.4608 16.0021 13.4848 16.0007 13.5072 15.9928C13.5296 15.9849 13.5496 15.9707 13.565 15.9519C14.0012 15.4099 14.3911 14.8285 14.7301 14.2143C15.0778 13.5781 15.3669 12.9084 15.5936 12.2143C15.6009 12.1907 15.602 12.1654 15.5969 12.1412C15.5917 12.1169 15.5805 12.0946 15.5644 12.0764Z" fill="currentColor"></path>
</svg>