<svg width="186" height="70" fill="none" xmlns="http://www.w3.org/2000/svg"><path d="M68.872 28.032v9.594h1.672v4.236h-3.1v-1.737H56V28.032h3.246v9.594h6.38v-9.593h3.246ZM85.725 28v2.71H75.709v2.143h9.22v2.403h-9.22v2.45h10.016v2.42H71.91V28h13.814Zm1.594 12.125V28.032h3.684v4.805h8.62v-4.805h3.684v12.093h-3.684v-4.788h-8.62v4.788H87.32Zm16.89-12.093h15.096v2.5h-5.714v9.593h-3.668v-9.593h-5.714v-2.5Zm27.867 4.821a.523.523 0 0 0 .016-.146v-.925a.141.141 0 0 1-.016-.065.178.178 0 0 0-.017-.081v-.016a.499.499 0 0 0-.032-.146v-.017a1.223 1.223 0 0 0-.049-.13c0-.01-.005-.021-.016-.032l-.049-.097a.248.248 0 0 1-.048-.065l-.033-.065-.049-.049a.27.27 0 0 1-.048-.065.333.333 0 0 1-.081-.065c-.011 0-.027-.01-.049-.032-.292-.217-.747-.325-1.364-.325h-6.33v3.539h6.72a.268.268 0 0 1 .081-.017h.033a3.06 3.06 0 0 0 .47-.114h.033c.238-.075.433-.21.584-.405.022-.022.033-.038.033-.049l.048-.048v-.033a.903.903 0 0 0 .146-.357v-.032a.33.33 0 0 0 .017-.13v-.033Zm3.246-1.785v2.402a.812.812 0 0 1-.016.163v.08l-.033.163a.813.813 0 0 1-.016.162c0 .011-.005.022-.016.033v.016a3.034 3.034 0 0 1-.325.877.043.043 0 0 0-.016.032l-.016.016a2.499 2.499 0 0 1-.163.243l-.048.05c-.249.302-.585.562-1.007.779-.021 0-.043.01-.065.032a1.222 1.222 0 0 1-.308.114l-.065.032c-.335.108-.719.19-1.152.243-.011.011-.027.017-.049.017a1.49 1.49 0 0 1-.211.016c-.065 0-.135.005-.211.016h-.097a1.589 1.589 0 0 1-.228.016h-7.369v3.555h-3.685V28.032h10.665v.017c1.417-.033 2.51.227 3.279.779a.46.46 0 0 0 .097.081c.087.065.151.119.195.162a.596.596 0 0 1 .065.081l.065.065.113.114c.065.087.108.152.13.195a.377.377 0 0 1 .065.097l.065.13a.722.722 0 0 1 .065.13c.011.01.016.021.016.032s.006.022.016.033c.022.054.038.103.049.146a1.9 1.9 0 0 1 .065.146c0 .033.005.054.016.065a.47.47 0 0 1 .033.178l.032.163c.011.01.016.021.016.032.011.065.017.13.017.195.01.065.016.13.016.195h.016ZM84.14 44.863v17.383h-5.297V49.343l-6.906 12.903h-3.734l-6.906-12.903v12.903H56V44.863h8.493l5.577 10.43 5.577-10.43h8.493Zm14.076 3.547-3.803 7.093h7.583l-3.78-7.093Zm-7.42 13.836h-5.6l9.31-17.383h7.42l9.287 17.383h-5.6l-1.68-3.15H92.476l-1.68 3.15Zm20.997-6.16v-.023l-.024-4.503v-.35a2.41 2.41 0 0 0 .024-.35.412.412 0 0 0 .023-.164c.015-.124.023-.233.023-.326a2.54 2.54 0 0 1 .07-.327v-.047c.016-.015.024-.038.024-.07.14-.637.365-1.236.676-1.796.031-.031.047-.063.047-.094a2.06 2.06 0 0 0 .163-.233 2.07 2.07 0 0 1 .164-.233.528.528 0 0 0 .093-.117 6.01 6.01 0 0 1 .91-.863 6.4 6.4 0 0 1 1.143-.7l.14-.07c.109-.047.21-.094.304-.14a2.68 2.68 0 0 1 .326-.117c.016-.016.031-.023.047-.023a.182.182 0 0 0 .07-.024 8.448 8.448 0 0 1 1.12-.303 9.757 9.757 0 0 1 1.237-.21h.046c.016-.016.039-.023.07-.023l.84-.07h.21a4.5 4.5 0 0 1 .444-.024h.49l5.39-.023v.023c2.94-.046 5.164.49 6.673 1.61.093.063.163.117.21.164.062.046.124.1.187.163l.186.14c.047.047.094.101.14.163l.14.14a.87.87 0 0 1 .094.117l.116.117.28.42a.355.355 0 0 1 .07.093.377.377 0 0 0 .07.093c.047.078.086.164.117.257.047.078.093.163.14.257l.07.14c.031.093.062.194.093.303.047.093.086.194.117.303a.187.187 0 0 1 .023.07l.024.047c.031.109.054.226.07.35.031.109.054.226.07.35.015.016.023.039.023.07.031.124.047.257.047.397l.046.373v.747h-5.343a1.606 1.606 0 0 0-.047-.187.794.794 0 0 0-.023-.187c-.016-.015-.023-.038-.023-.07a.54.54 0 0 1-.07-.14.289.289 0 0 0-.047-.163c-.016-.016-.023-.031-.023-.047 0-.015-.008-.03-.024-.046a.582.582 0 0 0-.14-.257.402.402 0 0 1-.046-.117 1.383 1.383 0 0 1-.164-.21l-.07-.07c0-.015-.015-.03-.046-.046a1.453 1.453 0 0 0-.35-.327l-.094-.093c-.809-.576-1.991-.864-3.546-.864h-3.15c-.078 0-.164.008-.257.024h-.327a1.18 1.18 0 0 1-.233.023c-.078 0-.156.008-.233.023h-.047a6.84 6.84 0 0 0-1.26.28c-.016 0-.031.008-.047.024h-.023a1.3 1.3 0 0 1-.163.07 1.26 1.26 0 0 0-.164.07c-.015 0-.031.008-.046.023h-.024a2.88 2.88 0 0 0-1.073.84l-.07.07a.767.767 0 0 0-.093.117.3.3 0 0 1-.07.116l-.024.047c-.171.311-.288.63-.35.957-.015.015-.023.039-.023.07a2.222 2.222 0 0 1-.047.163v.163c0 .047-.008.078-.023.094v2.986c.015.063.031.133.047.21v.047l.046.187c.016.046.031.1.047.163 0 .031.008.054.023.07.016.062.031.117.047.163.015.047.039.102.07.164v.046c.015 0 .023.008.023.024l.14.28a.355.355 0 0 1 .07.093c.062.093.117.163.164.21a.27.27 0 0 0 .046.07.272.272 0 0 1 .047.07c.047.031.101.078.163.14a.69.69 0 0 0 .187.163.49.49 0 0 0 .117.094c.808.59 1.991.879 3.546.863h3.36c.094 0 .179-.008.257-.023h.327l.233-.047h.07c.451-.047.863-.14 1.237-.28.031 0 .054-.008.07-.023a.921.921 0 0 0 .326-.117l.024-.023c.015 0 .031-.008.046-.024a3.089 3.089 0 0 0 1.097-.84l.047-.046a.767.767 0 0 1 .093-.117l.093-.14c0-.031.008-.047.024-.047.155-.28.272-.599.35-.956v-.024c.015-.015.023-.03.023-.046v-.047h5.367v.187c0 .124-.008.24-.024.35 0 .109-.008.225-.023.35 0 .078-.008.14-.023.186l-.047.327c0 .093-.016.195-.047.303 0 .063-.008.101-.023.117a5.609 5.609 0 0 1-.677 1.797c0 .03-.015.062-.046.093a4.398 4.398 0 0 1-.327.467.53.53 0 0 1-.093.116 5.493 5.493 0 0 1-.91.887 8.981 8.981 0 0 1-1.144.7.356.356 0 0 1-.14.047 4.67 4.67 0 0 1-.606.256.187.187 0 0 1-.07.024c-.016 0-.032.008-.047.023a11.75 11.75 0 0 1-1.12.327 13.5 13.5 0 0 1-1.237.186.26.26 0 0 1-.116.024l-.42.046a4.5 4.5 0 0 0-.444.024h-.21l-.466.046h-5.834c-2.94.032-5.172-.505-6.696-1.61a.804.804 0 0 0-.117-.093l-.093-.093a30.35 30.35 0 0 1-.187-.14l-.163-.164a1.502 1.502 0 0 1-.164-.14 4.156 4.156 0 0 0-.116-.163.797.797 0 0 0-.117-.093l-.093-.14a7.836 7.836 0 0 1-.164-.21 2.712 2.712 0 0 1-.14-.21.379.379 0 0 1-.07-.094c0-.03-.015-.062-.046-.093a27.15 27.15 0 0 1-.14-.233 3.254 3.254 0 0 1-.117-.257 1.369 1.369 0 0 0-.07-.163l-.14-.28-.093-.327c0-.016-.008-.031-.024-.047v-.07l-.093-.326a3.642 3.642 0 0 0-.07-.35v-.094a3.062 3.062 0 0 1-.07-.373c0-.14-.008-.272-.023-.397Zm41.292-7.256h-8.284v2.006c0 .607-.015 1.175-.046 1.704-.016.45-.031.94-.047 1.47a28.168 28.168 0 0 1-.093 1.563 17.38 17.38 0 0 1-.21 1.563 9.254 9.254 0 0 1-.327 1.4c-.233.747-.529 1.361-.887 1.844-.357.466-.77.84-1.236 1.12-.467.28-.996.474-1.587.583a10.71 10.71 0 0 1-1.937.163h-1.516V57.93h.35c.389 0 .739-.04 1.05-.117.264-.093.497-.257.7-.49.14-.202.249-.435.326-.7.094-.264.164-.537.21-.817.063-.28.109-.56.14-.84.031-.28.055-.536.07-.77a53.69 53.69 0 0 0 .14-3.663c.031-.747.047-1.587.047-2.52v-3.15h18.573v17.383h-5.436V48.83Zm19.529-.42-3.803 7.093h7.583l-3.78-7.093Zm-7.42 13.836h-5.6l9.31-17.383h7.42l9.287 17.383h-5.6l-1.68-3.15h-11.457l-1.68 3.15Z" fill="#FE4445"/><path fill-rule="evenodd" clip-rule="evenodd" d="M24.839 0c1.96 0 24.838 31.303 24.838 43.685C49.677 64.752 35.951 70 24.84 70 13.726 70 0 64.752 0 43.685 0 31.303 22.878 0 24.839 0Zm0 15.398S10.16 33.098 10.16 44.499c0 12.494 8.111 17.282 14.678 17.282 6.566 0 14.677-4.788 14.677-17.282 0-11.401-14.677-29.101-14.677-29.101Z" fill="#FE4445"/></svg>