<svg width="250" height="95" fill="none" xmlns="http://www.w3.org/2000/svg"><path d="M92.57 37.678v12.894h2.247v5.694H90.65v-2.334H75.269V37.678h4.363v12.894h8.574V37.678h4.364Zm22.651-.044v3.644H101.76v2.88h12.392v3.228H101.76v3.295h13.461v3.25H96.655V37.635h18.566Zm2.143 16.298V37.678h4.952v6.458h11.585v-6.458h4.953v16.254h-4.953v-6.436h-11.585v6.436h-4.952Zm22.702-16.254h20.29v3.36h-7.679v12.894h-4.931V41.038h-7.68v-3.36Zm37.455 6.48a.646.646 0 0 0 .022-.197v-1.243a.188.188 0 0 1-.022-.088.237.237 0 0 0-.022-.109V42.5a.69.69 0 0 0-.043-.196v-.022a1.461 1.461 0 0 0-.066-.174c0-.015-.007-.03-.022-.044l-.065-.13a.358.358 0 0 1-.066-.088l-.043-.087-.066-.066a.327.327 0 0 1-.065-.087.46.46 0 0 1-.109-.087c-.015 0-.037-.015-.066-.044-.392-.29-1.003-.436-1.832-.436h-8.509v4.756h9.032a.36.36 0 0 1 .109-.022h.044c.116-.014.225-.036.327-.065.117-.03.218-.059.306-.088h.043a1.58 1.58 0 0 0 .786-.545c.029-.03.043-.051.043-.066l.066-.065V44.9a1.22 1.22 0 0 0 .196-.48v-.043a.443.443 0 0 0 .022-.175v-.043Zm4.363-2.4v3.229c0 .072-.007.145-.021.218v.109l-.044.218c0 .073-.007.146-.022.218 0 .015-.007.03-.022.044v.022a4.073 4.073 0 0 1-.436 1.178c-.015.014-.022.029-.022.043l-.022.022a1.111 1.111 0 0 1-.109.175 3.128 3.128 0 0 1-.109.152l-.065.066c-.335.407-.786.756-1.353 1.047-.029 0-.058.015-.087.044-.102.058-.24.109-.415.153l-.087.043a8.502 8.502 0 0 1-1.549.327c-.014.015-.036.022-.065.022a2.016 2.016 0 0 1-.284.022 1.96 1.96 0 0 0-.284.022h-.131a2.147 2.147 0 0 1-.305.022h-9.905v4.778h-4.952V37.678h14.333v.022c1.906-.044 3.375.305 4.407 1.047a.643.643 0 0 0 .131.109c.117.087.204.16.262.218.029.03.058.066.087.11.03.028.059.058.088.087l.152.152c.088.117.146.204.175.262.029.03.058.073.087.131l.087.174c.03.044.059.102.088.175.014.015.022.03.022.044 0 .014.007.029.021.043.029.073.051.139.066.197.029.058.058.123.087.196 0 .044.007.073.022.087a.642.642 0 0 1 .044.24l.043.218c.015.015.022.03.022.044.015.087.022.175.022.262.014.087.022.174.022.262h.021ZM113.091 60.3v23.365h-7.119V66.322l-9.283 17.343h-5.018l-9.283-17.343v17.343h-7.12V60.3h11.417l7.495 14.02 7.496-14.02h11.415Zm18.92 4.767-5.112 9.534h10.193l-5.081-9.534Zm-9.973 18.598h-7.527L127.024 60.3h9.974l12.482 23.365h-7.527l-2.258-4.234h-15.399l-2.258 4.234Zm28.221-8.28v-.03l-.032-6.054v-.47c.021-.147.032-.303.032-.47a.538.538 0 0 0 .031-.22c.021-.168.032-.314.032-.44.02-.146.052-.292.094-.438V67.2c.021-.021.031-.052.031-.094a8.85 8.85 0 0 1 .909-2.415c.042-.042.063-.084.063-.126.084-.104.157-.209.22-.313.062-.105.136-.21.219-.314a.673.673 0 0 0 .126-.157 8.061 8.061 0 0 1 1.223-1.16c.46-.355.972-.669 1.537-.94l.188-.095a7.6 7.6 0 0 0 .407-.188 3.73 3.73 0 0 1 .439-.157c.021-.02.042-.031.063-.031.021 0 .052-.01.094-.032.481-.167.983-.303 1.506-.407.522-.126 1.076-.22 1.662-.282h.063c.021-.021.052-.032.094-.032l1.129-.094h.282c.209-.02.408-.031.596-.031h.658l7.245-.032v.032c3.952-.063 6.942.658 8.97 2.164.125.083.219.156.282.22.084.062.167.135.251.219l.251.188c.062.063.125.136.188.22l.188.188a.97.97 0 0 1 .125.156l.157.157.377.565a.511.511 0 0 1 .094.125.489.489 0 0 0 .094.126c.062.104.115.22.157.345.062.104.125.22.188.345l.094.188c.042.125.083.261.125.407.063.126.115.262.157.408a.237.237 0 0 1 .031.094l.032.063c.042.146.073.303.094.47.042.147.073.304.094.47.021.022.031.053.031.095.042.167.063.345.063.533l.063.502v1.003h-7.182a2.16 2.16 0 0 0-.063-.25c0-.084-.01-.168-.031-.251-.021-.021-.032-.053-.032-.094a.829.829 0 0 1-.094-.189.392.392 0 0 0-.062-.22c-.021-.02-.032-.041-.032-.062 0-.02-.01-.042-.031-.063a.79.79 0 0 0-.188-.345.548.548 0 0 1-.063-.156 1.912 1.912 0 0 1-.22-.283l-.094-.094c0-.02-.021-.041-.062-.062a1.945 1.945 0 0 0-.471-.44l-.125-.125c-1.087-.774-2.676-1.16-4.767-1.16h-4.234c-.105 0-.22.01-.345.031h-.439a1.6 1.6 0 0 1-.314.031c-.104 0-.209.01-.313.032h-.063a9.234 9.234 0 0 0-1.694.376c-.021 0-.041.01-.062.031h-.032a1.71 1.71 0 0 1-.219.094 1.73 1.73 0 0 0-.22.095c-.021 0-.042.01-.063.031h-.031a3.875 3.875 0 0 0-1.443 1.129l-.094.094a1.092 1.092 0 0 0-.125.157.392.392 0 0 1-.094.157l-.032.062c-.23.419-.386.847-.47 1.286-.021.021-.031.053-.031.094a3.003 3.003 0 0 1-.063.22v.22c0 .062-.01.104-.031.125v4.014c.021.084.041.178.062.282v.063l.063.251c.021.063.042.136.063.22 0 .041.01.073.031.094a1.77 1.77 0 0 0 .157.439v.063c.021 0 .031.01.031.03l.188.377a.493.493 0 0 1 .095.126c.083.125.156.22.219.282a.365.365 0 0 0 .063.094c.021.02.042.052.063.094.062.042.135.105.219.188a.932.932 0 0 0 .251.22.675.675 0 0 0 .157.125c1.087.795 2.676 1.181 4.767 1.16h4.516c.125 0 .24-.01.345-.03h.439c.105-.022.209-.043.314-.063h.094a6.683 6.683 0 0 0 1.662-.377c.042 0 .073-.01.094-.031.146-.021.293-.073.439-.157l.031-.031c.021 0 .042-.01.063-.032a4.143 4.143 0 0 0 1.474-1.129l.063-.062c.042-.063.083-.115.125-.157l.126-.188c0-.042.01-.063.031-.063.209-.376.366-.805.471-1.286v-.031c.02-.021.031-.042.031-.063v-.063h7.213v.251c0 .167-.01.324-.031.47 0 .147-.011.304-.032.471 0 .105-.01.188-.031.25l-.063.44c0 .125-.021.261-.062.408 0 .083-.011.135-.032.156-.188.92-.491 1.725-.909 2.415 0 .042-.021.084-.063.126a5.69 5.69 0 0 1-.439.627.69.69 0 0 1-.125.157 7.37 7.37 0 0 1-1.224 1.192c-.46.334-.972.648-1.536.94a.487.487 0 0 1-.188.063 6.296 6.296 0 0 1-.816.345.241.241 0 0 1-.094.031c-.021 0-.042.01-.063.032-.481.167-.982.313-1.505.439-.523.105-1.077.188-1.662.25a.35.35 0 0 1-.157.032l-.565.063c-.188 0-.386.01-.595.031h-.283l-.627.063h-7.84c-3.952.042-6.952-.68-9.001-2.164a1.025 1.025 0 0 0-.157-.125l-.126-.126-.251-.188a39.235 39.235 0 0 0-.219-.22 2.035 2.035 0 0 1-.22-.188 4.794 4.794 0 0 0-.156-.22 1.025 1.025 0 0 0-.157-.125l-.126-.188a14.172 14.172 0 0 1-.219-.282 3.084 3.084 0 0 1-.188-.282.468.468 0 0 1-.094-.126c0-.042-.021-.084-.063-.125l-.188-.314a4.586 4.586 0 0 1-.157-.345 1.706 1.706 0 0 0-.094-.22l-.188-.376-.126-.439c0-.02-.01-.042-.031-.063v-.094l-.126-.439a4.651 4.651 0 0 0-.094-.47v-.126a4.217 4.217 0 0 1-.094-.501 4.3 4.3 0 0 0-.031-.534Zm55.5-9.753h-11.134v2.697c0 .815-.02 1.579-.062 2.29-.021.606-.042 1.264-.063 1.975-.021.69-.063 1.39-.125 2.102a23 23 0 0 1-.283 2.1c-.104.67-.251 1.297-.439 1.882-.313 1.004-.711 1.83-1.191 2.478a5.942 5.942 0 0 1-1.663 1.505 6.336 6.336 0 0 1-2.132.784 14.4 14.4 0 0 1-2.603.22h-2.039v-5.802h.471c.522 0 .993-.052 1.411-.157.355-.125.669-.345.941-.658.188-.272.334-.586.439-.941a6.6 6.6 0 0 0 .282-1.098c.084-.376.146-.753.188-1.129.042-.376.073-.721.094-1.035.105-1.296.168-2.938.188-4.924a81.75 81.75 0 0 0 .063-3.387V60.3h24.964v23.365h-7.307V65.632Zm26.249-.565-5.112 9.534h10.193l-5.081-9.534Zm-9.973 18.598h-7.527L227.021 60.3h9.974l12.482 23.365h-7.527l-2.258-4.234h-15.399l-2.258 4.234Z" fill="#fff"/><path fill-rule="evenodd" clip-rule="evenodd" d="M33.385 0c2.636 0 33.386 42.074 33.386 58.716 0 28.316-18.45 35.37-33.386 35.37C18.45 94.086 0 87.032 0 58.716 0 42.074 30.75 0 33.385 0Zm0 20.696S13.658 44.486 13.658 59.81c0 16.792 10.901 23.228 19.727 23.228s19.728-6.436 19.728-23.228c0-15.325-19.728-39.115-19.728-39.115Z" fill="#fff"/></svg>