<svg width="60" height="24" fill="none" xmlns="http://www.w3.org/2000/svg"><path d="m6.832 24 1.763-6.655a10.2 10.2 0 0 1-.752.326c-.931.352-1.892.55-2.892.526-1.052-.026-2.04-.281-2.916-.878C1.02 16.629.4 15.67.133 14.485c-.216-.96-.158-1.916.095-2.861C.668 9.985 1.565 8.62 2.8 7.472c1.106-1.03 2.38-1.771 3.844-2.175 1.065-.293 2.143-.373 3.23-.141 1.148.244 2.113.795 2.837 1.727.56.723.858 1.553.954 2.456.089.845-.027 1.668-.25 2.481-.302 1.103-.592 2.21-.886 3.314-.636 2.394-1.254 4.794-1.911 7.183-.26.94-.928 1.49-1.894 1.666-.011.002-.02.01-.032.015-.618.002-1.24.002-1.86.002ZM3.483 12.465c.004.063.004.163.017.261.117.977.626 1.654 1.564 1.99a2.917 2.917 0 0 0 1.598.082c1.293-.274 2.274-.995 2.978-2.096.408-.639.626-1.34.581-2.107a2.28 2.28 0 0 0-1.663-2.098 3.09 3.09 0 0 0-1.601-.033c-1.177.274-2.096.934-2.779 1.916a3.687 3.687 0 0 0-.695 2.085ZM43.463.002l-.881 3.323c-.026.02-.054.01-.082.01-.536 0-1.075.005-1.61 0-.379-.001-.718-.114-.975-.403-.313-.35-.369-.767-.26-1.207.143-.576.303-1.15.456-1.725 1.117 0 2.234 0 3.352.002ZM60 5.078c-.072.193-.114.395-.166.595-.136.502-.266 1.006-.398 1.51-.011.043-.028.067-.08.065-.71-.002-1.421-.002-2.13-.002-.012 0-.023-.003-.042-.005l.587-2.217H60v.054ZM19.27 18.201a5.236 5.236 0 0 1-2.38-.626c-1.315-.713-2.085-1.822-2.363-3.276-.171-.9-.104-1.79.132-2.671.428-1.594 1.29-2.93 2.477-4.066a9.285 9.285 0 0 1 3.626-2.174 7.23 7.23 0 0 1 2.464-.361c1.091.035 2.108.316 3 .965 1.007.734 1.594 1.735 1.814 2.95.203 1.12.056 2.21-.328 3.272-.557 1.543-1.505 2.815-2.756 3.867-1.066.896-2.267 1.539-3.62 1.887-.598.156-1.21.232-2.066.233Zm-1.354-5.737c.004.063.004.163.017.261.117.977.624 1.655 1.56 1.989.522.187 1.062.198 1.599.085 1.296-.274 2.279-.997 2.983-2.102.406-.637.622-1.336.577-2.1-.06-1.006-.694-1.812-1.661-2.1a3.089 3.089 0 0 0-1.601-.033c-1.178.275-2.096.934-2.78 1.915a3.7 3.7 0 0 0-.694 2.085Zm21.939 5.737c-.009-.059.034-.08.06-.105l4.794-4.713c.579-.569 1.156-1.138 1.735-1.705.047-.046.058-.08.026-.143l-3.126-6.414-.036-.08c.015-.022.032-.016.047-.016.577 0 1.154-.006 1.732.002a2.585 2.585 0 0 1 1.486.461c.32.226.568.515.734.87.42.9.867 1.79 1.3 2.685l.178.365c.227-.238.438-.464.656-.68.767-.76 1.544-1.51 2.305-2.278.639-.641 1.375-1.107 2.26-1.325a3.31 3.31 0 0 1 .8-.102c.559-.002 1.117 0 1.676 0h.067c-.162.163-.313.315-.465.465l-6.167 6.06c-.046.046-.053.082-.024.143 1.038 2.126 2.073 4.255 3.11 6.383.019.037.05.072.02.124a.662.662 0 0 1-.06.003c-.56 0-1.118.01-1.677-.001-.717-.015-1.35-.243-1.85-.775a2.4 2.4 0 0 1-.41-.625c-.47-.974-.943-1.946-1.414-2.918-.004-.008-.011-.015-.017-.025-.031.002-.044.028-.063.047-.942.926-1.892 1.846-2.825 2.782-.423.424-.876.8-1.414 1.07a4.057 4.057 0 0 1-1.895.45c-.515-.012-1.027-.005-1.543-.005Zm-12.485-.003.2-.768c.18-.681.363-1.363.544-2.046.183-.687.363-1.377.546-2.064.31-1.177.624-2.354.936-3.53.134-.507.26-1.016.406-1.518.231-.786.678-1.444 1.28-1.996.64-.59 1.382-.994 2.244-1.164.171-.034.342-.056.516-.063 1.162-.048 2.324-.01 3.488-.02.005 0 .01.001.031.007l-.879 3.317c-.033.019-.069.01-.1.01H35.11c-.935.003-1.594.459-2.054 1.24-.148.248-.198.53-.27.803a2324.8 2324.8 0 0 0-1.902 7.178c-.054.206-.11.41-.166.616-1.115-.002-2.225-.002-3.35-.002ZM38.781 5.025c.6 0 1.19-.016 1.78.004.773.026 1.287.66 1.176 1.422-.054.376-.177.737-.274 1.102-.808 3.056-1.62 6.112-2.43 9.168l-.373 1.404c-.005.023-.015.046-.02.07h-3.35c1.163-4.39 2.325-8.777 3.491-13.17Z" fill="#000"/></svg>