<svg width="250" height="95" viewBox="0 0 250 95" fill="none" xmlns="http://www.w3.org/2000/svg">
<path d="M92.5697 37.6779V50.5718H94.8169V56.266H90.6498V53.9316H75.2688V37.6779H79.6322V50.5718H88.2063V37.6779H92.5697Z" fill="white"/>
<path d="M115.221 37.6343V41.2777H101.76V44.1576H114.152V47.3865H101.76V50.6809H115.221V53.9316H96.6548V37.6343H115.221Z" fill="white"/>
<path d="M117.364 53.9316V37.6779H122.316V44.1358H133.901V37.6779H138.854V53.9316H133.901V47.4956H122.316V53.9316H117.364Z" fill="white"/>
<path d="M140.066 37.6779H160.356V41.0377H152.677V53.9316H147.746V41.0377H140.066V37.6779Z" fill="white"/>
<path d="M177.521 44.1576C177.536 44.1139 177.543 44.0485 177.543 43.9612V42.7177C177.528 42.6886 177.521 42.6595 177.521 42.6304C177.521 42.5867 177.514 42.5504 177.499 42.5213V42.4995C177.499 42.4558 177.485 42.3904 177.456 42.3031V42.2813C177.427 42.194 177.405 42.1359 177.39 42.1068C177.39 42.0922 177.383 42.0777 177.368 42.0631L177.303 41.9322C177.274 41.9031 177.252 41.8741 177.237 41.845C177.223 41.8159 177.208 41.7868 177.194 41.7577L177.128 41.6922C177.099 41.6632 177.077 41.6341 177.063 41.605C177.034 41.5904 176.997 41.5613 176.954 41.5177C176.939 41.5177 176.917 41.5032 176.888 41.4741C176.496 41.1832 175.885 41.0377 175.056 41.0377H166.547V45.7939H175.47C175.499 45.7939 175.536 45.7939 175.579 45.7939C175.623 45.7793 175.659 45.772 175.688 45.772H175.732C175.848 45.7575 175.957 45.7357 176.059 45.7066C176.176 45.6775 176.277 45.6484 176.365 45.6193H176.408C176.728 45.5175 176.99 45.3357 177.194 45.0739C177.223 45.0448 177.237 45.023 177.237 45.0084C177.252 44.9939 177.274 44.9721 177.303 44.943V44.8994C177.39 44.783 177.456 44.623 177.499 44.4194V44.3757C177.514 44.3467 177.521 44.2885 177.521 44.2012V44.1576ZM181.884 41.7577V44.7466C181.884 44.8194 181.884 44.8994 181.884 44.9866C181.884 45.0593 181.877 45.1321 181.863 45.2048V45.3139C181.848 45.3866 181.834 45.4593 181.819 45.532C181.819 45.6048 181.812 45.6775 181.797 45.7502C181.797 45.7648 181.79 45.7793 181.775 45.7939C181.775 45.7939 181.775 45.8011 181.775 45.8157C181.688 46.2375 181.543 46.6302 181.339 46.9938C181.324 47.0083 181.317 47.0229 181.317 47.0374C181.317 47.0374 181.31 47.0447 181.295 47.0592C181.266 47.1174 181.23 47.1756 181.186 47.2338C181.157 47.2774 181.121 47.3283 181.077 47.3865L181.012 47.4519C180.677 47.8592 180.226 48.2083 179.659 48.4992C179.63 48.4992 179.601 48.5137 179.572 48.5428C179.47 48.601 179.332 48.6519 179.157 48.6955C179.157 48.6955 179.128 48.7101 179.07 48.7392C178.619 48.8846 178.103 48.9937 177.521 49.0664C177.507 49.081 177.485 49.0882 177.456 49.0882C177.354 49.1028 177.259 49.11 177.172 49.11C177.085 49.11 176.99 49.1173 176.888 49.1319H176.757C176.656 49.1464 176.554 49.1537 176.452 49.1537C176.35 49.1537 176.248 49.1537 176.147 49.1537H166.547V53.9316H161.595V37.6779H175.928V37.6997C177.834 37.6561 179.303 38.0052 180.335 38.7469C180.394 38.8051 180.437 38.8415 180.466 38.856C180.583 38.9433 180.67 39.016 180.728 39.0742C180.757 39.1033 180.786 39.1397 180.815 39.1833C180.845 39.2124 180.874 39.2415 180.903 39.2706L181.055 39.4233C181.143 39.5396 181.201 39.6269 181.23 39.6851C181.259 39.7142 181.288 39.7578 181.317 39.816C181.346 39.8742 181.375 39.9323 181.404 39.9905C181.434 40.0342 181.463 40.0923 181.492 40.1651C181.506 40.1796 181.514 40.1941 181.514 40.2087C181.514 40.2232 181.521 40.2378 181.535 40.2523C181.564 40.325 181.586 40.3905 181.601 40.4487C181.63 40.5069 181.659 40.5723 181.688 40.645C181.688 40.6887 181.695 40.7178 181.71 40.7323C181.739 40.805 181.754 40.885 181.754 40.9723C181.768 41.045 181.783 41.1177 181.797 41.1905C181.812 41.205 181.819 41.2195 181.819 41.2341C181.834 41.3214 181.841 41.4086 181.841 41.4959C181.855 41.5832 181.863 41.6704 181.863 41.7577H181.884Z" fill="white"/>
<path d="M113.091 60.3003V83.665H105.972V66.3218L96.6891 83.665H91.6711L82.388 66.3218V83.665H75.2688V60.3003H86.6846L94.1801 74.3191L101.676 60.3003H113.091Z" fill="white"/>
<path d="M132.011 65.0673L126.899 74.6014H137.092L132.011 65.0673ZM122.038 83.665H114.511L127.024 60.3003H136.998L149.48 83.665H141.953L139.695 79.4311H124.296L122.038 83.665Z" fill="white"/>
<path d="M150.259 75.3854V75.3541L150.227 69.3012C150.227 69.1339 150.227 68.9771 150.227 68.8308C150.248 68.6844 150.259 68.5276 150.259 68.3603C150.28 68.3185 150.29 68.2453 150.29 68.1408C150.311 67.9735 150.322 67.8272 150.322 67.7017C150.342 67.5554 150.374 67.409 150.416 67.2627C150.416 67.2208 150.416 67.1999 150.416 67.1999C150.437 67.179 150.447 67.1477 150.447 67.1059C150.635 66.2486 150.938 65.4437 151.356 64.691C151.398 64.6492 151.419 64.6073 151.419 64.5655C151.503 64.461 151.576 64.3564 151.639 64.2519C151.701 64.1474 151.775 64.0428 151.858 63.9383C151.921 63.8756 151.963 63.8233 151.984 63.7815C152.339 63.3633 152.747 62.9765 153.207 62.6211C153.667 62.2656 154.179 61.952 154.744 61.6802L154.932 61.5861C155.078 61.5234 155.214 61.4607 155.339 61.398C155.486 61.3352 155.632 61.283 155.778 61.2412C155.799 61.2202 155.82 61.2098 155.841 61.2098C155.862 61.2098 155.893 61.1993 155.935 61.1784C156.416 61.0112 156.918 60.8753 157.441 60.7707C157.963 60.6453 158.517 60.5512 159.103 60.4885C159.145 60.4885 159.166 60.4885 159.166 60.4885C159.187 60.4676 159.218 60.4571 159.26 60.4571L160.389 60.363H160.671C160.88 60.3421 161.079 60.3317 161.267 60.3317C161.476 60.3317 161.695 60.3317 161.925 60.3317L169.17 60.3003V60.3317C173.122 60.2689 176.112 60.9903 178.14 62.4956C178.265 62.5793 178.359 62.6524 178.422 62.7152C178.506 62.7779 178.589 62.8511 178.673 62.9347C178.756 62.9974 178.84 63.0602 178.924 63.1229C178.986 63.1856 179.049 63.2588 179.112 63.3424C179.175 63.4051 179.237 63.4679 179.3 63.5306C179.342 63.5724 179.384 63.6247 179.425 63.6874C179.488 63.7501 179.54 63.8024 179.582 63.8442L179.959 64.4087C180 64.4505 180.032 64.4923 180.053 64.5342C180.074 64.576 180.105 64.6178 180.147 64.6596C180.209 64.7642 180.262 64.8791 180.304 65.0046C180.366 65.1091 180.429 65.2241 180.492 65.3496L180.586 65.5377C180.628 65.6632 180.669 65.7991 180.711 65.9455C180.774 66.0709 180.826 66.2068 180.868 66.3532C180.889 66.395 180.899 66.4263 180.899 66.4472C180.899 66.4472 180.91 66.4682 180.931 66.51C180.973 66.6563 181.004 66.8131 181.025 66.9804C181.067 67.1268 181.098 67.2836 181.119 67.4508C181.14 67.4717 181.15 67.5031 181.15 67.5449C181.192 67.7122 181.213 67.8899 181.213 68.0781C181.234 68.2453 181.255 68.4126 181.276 68.5799V69.5834H174.094C174.073 69.4789 174.052 69.3953 174.031 69.3326C174.031 69.2489 174.021 69.1653 174 69.0817C173.979 69.0607 173.968 69.0294 173.968 68.9876C173.927 68.9248 173.895 68.8621 173.874 68.7994C173.874 68.7158 173.853 68.6426 173.812 68.5799C173.791 68.559 173.78 68.538 173.78 68.5171C173.78 68.4962 173.77 68.4753 173.749 68.4544C173.707 68.3081 173.644 68.1931 173.561 68.1094C173.519 68.0258 173.498 67.9735 173.498 67.9526C173.435 67.8899 173.362 67.7958 173.278 67.6704C173.237 67.6285 173.205 67.5972 173.184 67.5763C173.184 67.5554 173.163 67.5345 173.122 67.5136C173.017 67.3672 172.86 67.2208 172.651 67.0745L172.526 66.949C171.439 66.1754 169.85 65.7886 167.759 65.7886H163.525C163.42 65.7886 163.305 65.7991 163.18 65.82C163.075 65.82 162.971 65.82 162.866 65.82H162.741C162.636 65.8409 162.532 65.8514 162.427 65.8514C162.323 65.8514 162.218 65.8618 162.114 65.8827H162.051C161.424 65.9664 160.859 66.0918 160.357 66.2591C160.336 66.2591 160.316 66.2695 160.295 66.2904C160.295 66.2904 160.284 66.2904 160.263 66.2904C160.18 66.3323 160.106 66.3636 160.044 66.3845C159.981 66.4054 159.908 66.4368 159.824 66.4786C159.803 66.4786 159.782 66.4891 159.761 66.51C159.761 66.51 159.751 66.51 159.73 66.51C159.145 66.7818 158.664 67.1581 158.287 67.639L158.193 67.7331C158.152 67.7749 158.11 67.8272 158.068 67.8899C158.047 67.9526 158.016 68.0049 157.974 68.0467C157.953 68.0885 157.942 68.1094 157.942 68.1094C157.712 68.5276 157.556 68.9562 157.472 69.3953C157.451 69.4162 157.441 69.4475 157.441 69.4894C157.42 69.573 157.399 69.6462 157.378 69.7089C157.378 69.7716 157.378 69.8448 157.378 69.9284C157.378 69.9912 157.368 70.033 157.347 70.0539V73.786C157.347 73.8905 157.347 73.9846 157.347 74.0682C157.368 74.1518 157.388 74.2459 157.409 74.3505V74.4132C157.43 74.4968 157.451 74.5805 157.472 74.6641C157.493 74.7268 157.514 74.8 157.535 74.8836C157.535 74.9254 157.545 74.9568 157.566 74.9777C157.587 75.0613 157.608 75.1345 157.629 75.1972C157.65 75.26 157.681 75.3331 157.723 75.4168C157.723 75.4377 157.723 75.4586 157.723 75.4795C157.744 75.4795 157.754 75.49 157.754 75.5109L157.942 75.8872C157.984 75.929 158.016 75.9708 158.037 76.0127C158.12 76.1381 158.193 76.2322 158.256 76.2949C158.277 76.3367 158.298 76.3681 158.319 76.389C158.34 76.4099 158.361 76.4413 158.382 76.4831C158.444 76.5249 158.517 76.5876 158.601 76.6713C158.643 76.734 158.727 76.8072 158.852 76.8908C158.915 76.9535 158.967 76.9953 159.009 77.0162C160.096 77.8107 161.685 78.1975 163.776 78.1766H167.978C168.083 78.1766 168.187 78.1766 168.292 78.1766C168.417 78.1766 168.532 78.1662 168.637 78.1453H168.794C168.898 78.1453 168.992 78.1453 169.076 78.1453C169.181 78.1244 169.285 78.1035 169.39 78.0826H169.484C170.09 78.0198 170.644 77.8944 171.146 77.7062C171.188 77.7062 171.219 77.6958 171.24 77.6748C171.386 77.6539 171.533 77.6017 171.679 77.518C171.7 77.4971 171.71 77.4867 171.71 77.4867C171.731 77.4867 171.752 77.4762 171.773 77.4553C172.359 77.1835 172.85 76.8072 173.247 76.3263C173.289 76.2845 173.31 76.2636 173.31 76.2636C173.352 76.2008 173.393 76.1486 173.435 76.1067C173.477 76.044 173.519 75.9813 173.561 75.9186C173.561 75.8768 173.571 75.8558 173.592 75.8558C173.801 75.4795 173.958 75.0509 174.063 74.57C174.063 74.5491 174.063 74.5386 174.063 74.5386C174.083 74.5177 174.094 74.4968 174.094 74.4759V74.4132H181.307V74.6641C181.307 74.8314 181.297 74.9882 181.276 75.1345C181.276 75.2809 181.265 75.4377 181.244 75.605C181.244 75.7095 181.234 75.7931 181.213 75.8558C181.192 76.0022 181.171 76.1486 181.15 76.2949C181.15 76.4204 181.129 76.5563 181.088 76.7026C181.088 76.7863 181.077 76.8385 181.056 76.8594C180.868 77.7794 180.565 78.5843 180.147 79.2743C180.147 79.3161 180.126 79.3579 180.084 79.3998C179.959 79.6088 179.812 79.8179 179.645 80.027C179.624 80.0688 179.582 80.1211 179.52 80.1838C179.164 80.6229 178.756 81.0201 178.296 81.3756C177.836 81.7101 177.324 82.0237 176.76 82.3164C176.676 82.3582 176.613 82.3791 176.572 82.3791C176.279 82.5255 176.007 82.6405 175.756 82.7241C175.714 82.745 175.683 82.7555 175.662 82.7555C175.641 82.7555 175.62 82.7659 175.599 82.7869C175.118 82.9541 174.617 83.1005 174.094 83.2259C173.571 83.3305 173.017 83.4141 172.432 83.4768C172.39 83.4977 172.338 83.5082 172.275 83.5082C172.087 83.5291 171.899 83.55 171.71 83.5709C171.522 83.5709 171.324 83.5814 171.115 83.6023H170.832C170.623 83.6232 170.414 83.6441 170.205 83.665C170.017 83.665 169.818 83.665 169.609 83.665H162.365C158.413 83.7068 155.413 82.9855 153.364 81.501C153.322 81.4592 153.27 81.4174 153.207 81.3756C153.165 81.3337 153.123 81.2919 153.081 81.2501C152.998 81.1874 152.914 81.1247 152.83 81.0619C152.768 80.9992 152.695 80.926 152.611 80.8424C152.527 80.7797 152.454 80.717 152.391 80.6542C152.35 80.5915 152.297 80.5183 152.235 80.4347C152.193 80.3929 152.141 80.3511 152.078 80.3093C152.036 80.2465 151.994 80.1838 151.952 80.1211C151.869 80.0165 151.796 79.9225 151.733 79.8388C151.67 79.7552 151.607 79.6611 151.545 79.5566C151.503 79.5147 151.471 79.4729 151.451 79.4311C151.451 79.3893 151.43 79.3475 151.388 79.3057C151.325 79.2011 151.262 79.0966 151.2 78.9921C151.137 78.8666 151.085 78.7516 151.043 78.6471C151.022 78.5843 150.991 78.5112 150.949 78.4275C150.886 78.3021 150.823 78.1766 150.761 78.0512C150.719 77.9048 150.677 77.7585 150.635 77.6121C150.635 77.5912 150.625 77.5703 150.604 77.5494C150.604 77.5285 150.604 77.4971 150.604 77.4553C150.562 77.309 150.52 77.1626 150.478 77.0162C150.457 76.8699 150.426 76.7131 150.384 76.5458V76.4204C150.342 76.2531 150.311 76.0858 150.29 75.9186C150.29 75.7304 150.28 75.5527 150.259 75.3854Z" fill="white"/>
<path d="M205.759 65.6318H194.625C194.625 66.5936 194.625 67.4926 194.625 68.329C194.625 69.1444 194.605 69.9075 194.563 70.6184C194.542 71.2247 194.521 71.8833 194.5 72.5942C194.479 73.2842 194.437 73.9846 194.375 74.6955C194.312 75.4063 194.218 76.1067 194.092 76.7967C193.988 77.4658 193.841 78.093 193.653 78.6784C193.34 79.682 192.942 80.5079 192.462 81.156C191.981 81.7833 191.427 82.2851 190.799 82.6614C190.172 83.0378 189.461 83.2991 188.667 83.4455C187.872 83.5918 187.005 83.665 186.064 83.665H184.025V77.863H184.496C185.018 77.863 185.489 77.8107 185.907 77.7062C186.262 77.5808 186.576 77.3612 186.848 77.0476C187.036 76.7758 187.182 76.4622 187.287 76.1067C187.412 75.7513 187.506 75.3854 187.569 75.0091C187.653 74.6327 187.715 74.2564 187.757 73.88C187.799 73.5037 187.83 73.1587 187.851 72.8451C187.956 71.5488 188.019 69.9075 188.039 67.9213C188.081 66.9177 188.102 65.7886 188.102 64.5342C188.102 63.2588 188.102 61.8475 188.102 60.3003H213.066V83.665H205.759V65.6318Z" fill="white"/>
<path d="M232.008 65.0673L226.896 74.6014H237.089L232.008 65.0673ZM222.035 83.665H214.508L227.021 60.3003H236.995L249.477 83.665H241.95L239.692 79.4311H224.293L222.035 83.665Z" fill="white"/>
<path fill-rule="evenodd" clip-rule="evenodd" d="M33.3854 0C36.0212 0 66.7707 42.0736 66.7707 58.7162C66.7707 87.032 48.3216 94.086 33.3854 94.086C18.4491 94.086 0 87.032 0 58.7162C0 42.0736 30.7496 0 33.3854 0ZM33.3854 20.6957C33.3854 20.6957 13.6576 44.4864 13.6576 59.8106C13.6577 76.6033 24.5594 83.0388 33.3854 83.0388C42.2113 83.0388 53.1131 76.6033 53.1131 59.8106C53.1131 44.4864 33.3854 20.6957 33.3854 20.6957Z" fill="white"/>
</svg>
