<svg width="186" height="70" viewBox="0 0 186 70" fill="none" xmlns="http://www.w3.org/2000/svg">
<path d="M68.8719 28.0325V37.6255H70.5438V41.862H67.4435V40.1252H56V28.0325H59.2464V37.6255H65.6255V28.0325H68.8719Z" fill="#FE4445"/>
<path d="M85.7245 28V30.7107H75.7094V32.8533H84.9291V35.2557H75.7094V37.7067H85.7245V40.1252H71.9112V28H85.7245Z" fill="#FE4445"/>
<path d="M87.3188 40.1252V28.0325H91.0034V32.8371H99.6226V28.0325H103.307V40.1252H99.6226V35.3368H91.0034V40.1252H87.3188Z" fill="#FE4445"/>
<path d="M104.209 28.0325H119.305V30.5322H113.591V40.1252H109.923V30.5322H104.209V28.0325Z" fill="#FE4445"/>
<path d="M132.076 32.8533C132.086 32.8209 132.092 32.7722 132.092 32.7072V31.782C132.081 31.7604 132.076 31.7387 132.076 31.7171C132.076 31.6846 132.07 31.6576 132.059 31.6359V31.6197C132.059 31.5872 132.049 31.5386 132.027 31.4736V31.4574C132.005 31.3925 131.989 31.3492 131.978 31.3275C131.978 31.3167 131.973 31.3059 131.962 31.2951L131.913 31.1977C131.892 31.176 131.875 31.1544 131.865 31.1328C131.854 31.1111 131.843 31.0895 131.832 31.0678L131.783 31.0191C131.762 30.9975 131.746 30.9758 131.735 30.9542C131.713 30.9434 131.686 30.9217 131.654 30.8893C131.643 30.8893 131.627 30.8785 131.605 30.8568C131.313 30.6404 130.858 30.5322 130.241 30.5322H123.911V34.0707H130.55C130.572 34.0707 130.599 34.0707 130.631 34.0707C130.663 34.0599 130.691 34.0545 130.712 34.0545H130.745C130.831 34.0437 130.912 34.0274 130.988 34.0058C131.075 33.9842 131.15 33.9625 131.215 33.9409H131.248C131.486 33.8651 131.681 33.7299 131.832 33.5351C131.854 33.5134 131.865 33.4972 131.865 33.4864C131.875 33.4756 131.892 33.4593 131.913 33.4377V33.4052C131.978 33.3186 132.027 33.1996 132.059 33.0481V33.0157C132.07 32.994 132.076 32.9507 132.076 32.8858V32.8533ZM135.322 31.0678V33.2916C135.322 33.3457 135.322 33.4052 135.322 33.4701C135.322 33.5243 135.317 33.5784 135.306 33.6325V33.7136C135.295 33.7677 135.284 33.8218 135.273 33.8759C135.273 33.93 135.268 33.9842 135.257 34.0383C135.257 34.0491 135.252 34.0599 135.241 34.0707C135.241 34.0707 135.241 34.0761 135.241 34.087C135.176 34.4008 135.068 34.6929 134.916 34.9635C134.905 34.9743 134.9 34.9851 134.9 34.9959C134.9 34.9959 134.895 35.0014 134.884 35.0122C134.862 35.0555 134.835 35.0987 134.803 35.142C134.781 35.1745 134.754 35.2124 134.721 35.2557L134.673 35.3043C134.424 35.6073 134.088 35.8671 133.666 36.0835C133.645 36.0835 133.623 36.0943 133.601 36.1159C133.526 36.1592 133.423 36.1971 133.293 36.2296C133.293 36.2296 133.271 36.2404 133.228 36.262C132.893 36.3702 132.509 36.4514 132.076 36.5055C132.065 36.5163 132.049 36.5217 132.027 36.5217C131.951 36.5326 131.881 36.538 131.816 36.538C131.751 36.538 131.681 36.5434 131.605 36.5542H131.508C131.432 36.565 131.356 36.5704 131.28 36.5704C131.205 36.5704 131.129 36.5704 131.053 36.5704H123.911V40.1252H120.226V28.0325H130.891V28.0487C132.308 28.0162 133.401 28.2759 134.17 28.8278C134.213 28.8711 134.245 28.8982 134.267 28.909C134.354 28.9739 134.418 29.028 134.462 29.0713C134.483 29.0929 134.505 29.12 134.527 29.1525C134.548 29.1741 134.57 29.1957 134.592 29.2174L134.705 29.331C134.77 29.4176 134.813 29.4825 134.835 29.5258C134.857 29.5474 134.878 29.5799 134.9 29.6232C134.922 29.6665 134.943 29.7098 134.965 29.753C134.987 29.7855 135.008 29.8288 135.03 29.8829C135.041 29.8937 135.046 29.9045 135.046 29.9154C135.046 29.9262 135.052 29.937 135.062 29.9478C135.084 30.0019 135.1 30.0506 135.111 30.0939C135.133 30.1372 135.154 30.1859 135.176 30.24C135.176 30.2725 135.181 30.2941 135.192 30.3049C135.214 30.359 135.225 30.4186 135.225 30.4835C135.235 30.5376 135.246 30.5917 135.257 30.6458C135.268 30.6566 135.273 30.6674 135.273 30.6783C135.284 30.7432 135.29 30.8081 135.29 30.873C135.3 30.938 135.306 31.0029 135.306 31.0678H135.322Z" fill="#FE4445"/>
<path d="M84.14 44.863V62.2464H78.8433V49.343L71.9367 62.2464H68.2033L61.2967 49.343V62.2464H56V44.863H64.4933L70.07 55.293L75.6467 44.863H84.14Z" fill="#FE4445"/>
<path d="M98.2162 48.4097L94.4129 55.503H101.996L98.2162 48.4097ZM90.7962 62.2464H85.1962L94.5062 44.863H101.926L111.213 62.2464H105.613L103.933 59.0964H92.4762L90.7962 62.2464Z" fill="#FE4445"/>
<path d="M111.793 56.0864V56.063L111.769 51.5597C111.769 51.4353 111.769 51.3186 111.769 51.2097C111.785 51.1008 111.793 50.9842 111.793 50.8597C111.808 50.8286 111.816 50.7742 111.816 50.6964C111.831 50.5719 111.839 50.463 111.839 50.3697C111.855 50.2608 111.878 50.1519 111.909 50.043C111.909 50.0119 111.909 49.9964 111.909 49.9964C111.925 49.9808 111.933 49.9575 111.933 49.9264C112.073 49.2886 112.298 48.6897 112.609 48.1297C112.64 48.0986 112.656 48.0675 112.656 48.0364C112.718 47.9586 112.773 47.8808 112.819 47.803C112.866 47.7253 112.92 47.6475 112.983 47.5697C113.029 47.523 113.06 47.4842 113.076 47.453C113.34 47.1419 113.644 46.8542 113.986 46.5897C114.328 46.3253 114.709 46.0919 115.129 45.8897L115.269 45.8197C115.378 45.773 115.479 45.7264 115.573 45.6797C115.681 45.633 115.79 45.5942 115.899 45.563C115.915 45.5475 115.93 45.5397 115.946 45.5397C115.961 45.5397 115.985 45.5319 116.016 45.5164C116.374 45.3919 116.747 45.2908 117.136 45.213C117.525 45.1197 117.937 45.0497 118.373 45.003C118.404 45.003 118.419 45.003 118.419 45.003C118.435 44.9875 118.458 44.9797 118.489 44.9797L119.329 44.9097H119.539C119.695 44.8942 119.843 44.8864 119.983 44.8864C120.138 44.8864 120.301 44.8864 120.473 44.8864L125.863 44.863V44.8864C128.803 44.8397 131.027 45.3764 132.536 46.4964C132.629 46.5586 132.699 46.613 132.746 46.6597C132.808 46.7064 132.87 46.7608 132.933 46.823C132.995 46.8697 133.057 46.9164 133.119 46.963C133.166 47.0097 133.213 47.0642 133.259 47.1264C133.306 47.173 133.353 47.2197 133.399 47.2664C133.43 47.2975 133.461 47.3364 133.493 47.383C133.539 47.4297 133.578 47.4686 133.609 47.4997L133.889 47.9197C133.92 47.9508 133.944 47.9819 133.959 48.013C133.975 48.0442 133.998 48.0753 134.029 48.1064C134.076 48.1842 134.115 48.2697 134.146 48.363C134.193 48.4408 134.239 48.5264 134.286 48.6197L134.356 48.7597C134.387 48.853 134.418 48.9542 134.449 49.063C134.496 49.1564 134.535 49.2575 134.566 49.3664C134.581 49.3975 134.589 49.4208 134.589 49.4364C134.589 49.4364 134.597 49.4519 134.613 49.483C134.644 49.5919 134.667 49.7086 134.683 49.833C134.714 49.9419 134.737 50.0586 134.753 50.183C134.768 50.1986 134.776 50.2219 134.776 50.253C134.807 50.3775 134.823 50.5097 134.823 50.6497C134.838 50.7742 134.854 50.8986 134.869 51.023V51.7697H129.526C129.51 51.6919 129.495 51.6297 129.479 51.583C129.479 51.5208 129.471 51.4586 129.456 51.3964C129.44 51.3808 129.433 51.3575 129.433 51.3264C129.401 51.2797 129.378 51.233 129.363 51.1864C129.363 51.1242 129.347 51.0697 129.316 51.023C129.3 51.0075 129.293 50.9919 129.293 50.9764C129.293 50.9608 129.285 50.9453 129.269 50.9297C129.238 50.8208 129.191 50.7353 129.129 50.673C129.098 50.6108 129.083 50.5719 129.083 50.5564C129.036 50.5097 128.981 50.4397 128.919 50.3464C128.888 50.3153 128.865 50.2919 128.849 50.2764C128.849 50.2608 128.834 50.2453 128.803 50.2297C128.725 50.1208 128.608 50.0119 128.453 49.903L128.359 49.8097C127.55 49.2342 126.368 48.9464 124.813 48.9464H121.663C121.585 48.9464 121.499 48.9542 121.406 48.9697C121.328 48.9697 121.25 48.9697 121.173 48.9697H121.079C121.001 48.9853 120.924 48.993 120.846 48.993C120.768 48.993 120.69 49.0008 120.613 49.0164H120.566C120.099 49.0786 119.679 49.1719 119.306 49.2964C119.29 49.2964 119.275 49.3042 119.259 49.3197C119.259 49.3197 119.251 49.3197 119.236 49.3197C119.174 49.3508 119.119 49.3742 119.073 49.3897C119.026 49.4053 118.971 49.4286 118.909 49.4597C118.894 49.4597 118.878 49.4675 118.863 49.483C118.863 49.483 118.855 49.483 118.839 49.483C118.404 49.6853 118.046 49.9653 117.766 50.323L117.696 50.393C117.665 50.4242 117.634 50.463 117.603 50.5097C117.587 50.5564 117.564 50.5953 117.533 50.6264C117.517 50.6575 117.509 50.673 117.509 50.673C117.338 50.9842 117.221 51.303 117.159 51.6297C117.144 51.6453 117.136 51.6686 117.136 51.6997C117.12 51.7619 117.105 51.8164 117.089 51.863C117.089 51.9097 117.089 51.9642 117.089 52.0264C117.089 52.073 117.081 52.1042 117.066 52.1197V54.8964C117.066 54.9742 117.066 55.0442 117.066 55.1064C117.081 55.1686 117.097 55.2386 117.113 55.3164V55.363C117.128 55.4253 117.144 55.4875 117.159 55.5497C117.175 55.5964 117.19 55.6508 117.206 55.713C117.206 55.7442 117.214 55.7675 117.229 55.783C117.245 55.8453 117.26 55.8997 117.276 55.9464C117.291 55.993 117.315 56.0475 117.346 56.1097C117.346 56.1253 117.346 56.1408 117.346 56.1564C117.361 56.1564 117.369 56.1642 117.369 56.1797L117.509 56.4597C117.54 56.4908 117.564 56.5219 117.579 56.553C117.641 56.6464 117.696 56.7164 117.743 56.763C117.758 56.7942 117.774 56.8175 117.789 56.833C117.805 56.8486 117.82 56.8719 117.836 56.903C117.883 56.9342 117.937 56.9808 117.999 57.043C118.03 57.0897 118.093 57.1442 118.186 57.2064C118.233 57.253 118.271 57.2842 118.303 57.2997C119.111 57.8908 120.294 58.1786 121.849 58.163H124.976C125.054 58.163 125.131 58.163 125.209 58.163C125.303 58.163 125.388 58.1553 125.466 58.1397H125.583C125.66 58.1397 125.73 58.1397 125.793 58.1397C125.87 58.1242 125.948 58.1086 126.026 58.093H126.096C126.547 58.0464 126.959 57.953 127.333 57.813C127.364 57.813 127.387 57.8053 127.403 57.7897C127.511 57.7742 127.62 57.7353 127.729 57.673C127.745 57.6575 127.753 57.6497 127.753 57.6497C127.768 57.6497 127.784 57.6419 127.799 57.6264C128.235 57.4242 128.6 57.1442 128.896 56.7864C128.927 56.7553 128.943 56.7397 128.943 56.7397C128.974 56.693 129.005 56.6542 129.036 56.623C129.067 56.5764 129.098 56.5297 129.129 56.483C129.129 56.4519 129.137 56.4364 129.153 56.4364C129.308 56.1564 129.425 55.8375 129.503 55.4797C129.503 55.4642 129.503 55.4564 129.503 55.4564C129.518 55.4408 129.526 55.4253 129.526 55.4097V55.363H134.893V55.5497C134.893 55.6742 134.885 55.7908 134.869 55.8997C134.869 56.0086 134.861 56.1253 134.846 56.2497C134.846 56.3275 134.838 56.3897 134.823 56.4364C134.807 56.5453 134.791 56.6542 134.776 56.763C134.776 56.8564 134.76 56.9575 134.729 57.0664C134.729 57.1286 134.721 57.1675 134.706 57.183C134.566 57.8675 134.34 58.4664 134.029 58.9797C134.029 59.0108 134.014 59.0419 133.983 59.073C133.889 59.2286 133.78 59.3842 133.656 59.5397C133.64 59.5708 133.609 59.6097 133.563 59.6564C133.298 59.983 132.995 60.2786 132.653 60.543C132.31 60.7919 131.929 61.0253 131.509 61.243C131.447 61.2742 131.4 61.2897 131.369 61.2897C131.151 61.3986 130.949 61.4842 130.763 61.5464C130.731 61.5619 130.708 61.5697 130.693 61.5697C130.677 61.5697 130.661 61.5775 130.646 61.593C130.288 61.7175 129.915 61.8264 129.526 61.9197C129.137 61.9975 128.725 62.0597 128.289 62.1064C128.258 62.1219 128.219 62.1297 128.173 62.1297C128.033 62.1453 127.893 62.1608 127.753 62.1764C127.613 62.1764 127.465 62.1842 127.309 62.1997H127.099C126.944 62.2153 126.788 62.2308 126.633 62.2464C126.493 62.2464 126.345 62.2464 126.189 62.2464H120.799C117.859 62.2775 115.627 61.7408 114.103 60.6364C114.071 60.6053 114.033 60.5742 113.986 60.543C113.955 60.5119 113.924 60.4808 113.893 60.4497C113.83 60.403 113.768 60.3564 113.706 60.3097C113.659 60.263 113.605 60.2086 113.543 60.1464C113.48 60.0997 113.426 60.053 113.379 60.0064C113.348 59.9597 113.309 59.9053 113.263 59.843C113.231 59.8119 113.193 59.7808 113.146 59.7497C113.115 59.703 113.084 59.6564 113.053 59.6097C112.99 59.5319 112.936 59.4619 112.889 59.3997C112.843 59.3375 112.796 59.2675 112.749 59.1897C112.718 59.1586 112.695 59.1275 112.679 59.0964C112.679 59.0653 112.664 59.0342 112.633 59.003C112.586 58.9253 112.539 58.8475 112.493 58.7697C112.446 58.6764 112.407 58.5908 112.376 58.513C112.36 58.4664 112.337 58.4119 112.306 58.3497C112.259 58.2564 112.213 58.163 112.166 58.0697C112.135 57.9608 112.104 57.8519 112.073 57.743C112.073 57.7275 112.065 57.7119 112.049 57.6964C112.049 57.6808 112.049 57.6575 112.049 57.6264C112.018 57.5175 111.987 57.4086 111.956 57.2997C111.94 57.1908 111.917 57.0742 111.886 56.9497V56.8564C111.855 56.7319 111.831 56.6075 111.816 56.483C111.816 56.343 111.808 56.2108 111.793 56.0864Z" fill="#FE4445"/>
<path d="M153.085 48.8297H144.801C144.801 49.5453 144.801 50.2142 144.801 50.8364C144.801 51.443 144.786 52.0108 144.755 52.5397C144.739 52.9908 144.724 53.4808 144.708 54.0097C144.692 54.523 144.661 55.0442 144.615 55.573C144.568 56.1019 144.498 56.623 144.405 57.1364C144.327 57.6342 144.218 58.1008 144.078 58.5364C143.845 59.283 143.549 59.8975 143.191 60.3797C142.834 60.8464 142.421 61.2197 141.955 61.4997C141.488 61.7797 140.959 61.9742 140.368 62.083C139.777 62.1919 139.131 62.2464 138.431 62.2464H136.915V57.9297H137.265C137.654 57.9297 138.004 57.8908 138.315 57.813C138.579 57.7197 138.812 57.5564 139.015 57.323C139.155 57.1208 139.264 56.8875 139.341 56.623C139.435 56.3586 139.505 56.0864 139.551 55.8064C139.614 55.5264 139.66 55.2464 139.691 54.9664C139.722 54.6864 139.746 54.4297 139.761 54.1964C139.839 53.2319 139.886 52.0108 139.901 50.533C139.932 49.7864 139.948 48.9464 139.948 48.013C139.948 47.0642 139.948 46.0142 139.948 44.863H158.521V62.2464H153.085V48.8297Z" fill="#FE4445"/>
<path d="M172.614 48.4097L168.811 55.503H176.394L172.614 48.4097ZM165.194 62.2464H159.594L168.904 44.863H176.324L185.611 62.2464H180.011L178.331 59.0964H166.874L165.194 62.2464Z" fill="#FE4445"/>
<path fill-rule="evenodd" clip-rule="evenodd" d="M24.8387 0C26.7998 0 49.6774 31.3028 49.6774 43.6849C49.6774 64.7518 35.9513 70 24.8387 70C13.7261 70 0 64.7518 0 43.6849C0 31.3028 22.8777 0 24.8387 0ZM24.8387 15.3976C24.8387 15.3976 10.1613 33.0979 10.1613 44.4991C10.1613 56.9928 18.2722 61.7808 24.8387 61.7808C31.4052 61.7808 39.5161 56.9928 39.5161 44.4991C39.5161 33.0979 24.8387 15.3976 24.8387 15.3976Z" fill="#FE4445"/>
</svg>
