<svg style="display: none;" aria-hidden="true" xmlns="http://www.w3.org/2000/svg" xmlns:xlink="http://www.w3.org/1999/xlink"><symbol fill="none" viewBox="0 0 15 8" id="icon-bottom" xmlns="http://www.w3.org/2000/svg"><path d="M7.194 7.778a1.577 1.577 0 0 1-.552-.096 1.46 1.46 0 0 1-.469-.28L.423 2.22a1.3 1.3 0 0 1-.313-.422 1.19 1.19 0 0 1 0-.995A1.3 1.3 0 0 1 .423.38C.557.261.716.164.89.099a1.582 1.582 0 0 1 1.105 0c.175.065.334.161.468.282l4.73 4.288 4.744-4.12a1.44 1.44 0 0 1 .473-.312 1.571 1.571 0 0 1 1.15-.017c.182.069.347.17.484.3.137.128.242.28.31.448a1.18 1.18 0 0 1-.066 1.034c-.09.159-.215.3-.367.413l-5.75 5a1.523 1.523 0 0 1-.978.363Z" fill="currentColor"/></symbol><symbol fill="none" viewBox="0 0 22 22" id="icon-close" xmlns="http://www.w3.org/2000/svg"><path d="m22 2.038-8.934 8.897.125.126-.003.002L22 19.839l-2.207 2.039-8.732-8.696L2.207 22 0 19.961l8.933-8.898-.124-.125.002-.003L0 2.16 2.207.122l8.73 8.695L19.794 0 22 2.038Z" fill="currentColor"/></symbol><symbol fill="none" viewBox="0 0 8 15" id="icon-next" xmlns="http://www.w3.org/2000/svg"><path d="M7.743 7.212c.002.189-.03.377-.093.552a1.459 1.459 0 0 1-.277.47l-5.146 5.783a1.3 1.3 0 0 1-.42.315 1.19 1.19 0 0 1-.996.006 1.301 1.301 0 0 1-.424-.31 1.463 1.463 0 0 1-.285-.467 1.583 1.583 0 0 1-.006-1.105c.064-.175.159-.335.279-.47l4.259-4.755L.485 2.51a1.44 1.44 0 0 1-.315-.47A1.57 1.57 0 0 1 .146.89C.214.708.315.543.443.405.57.268.723.161.889.091a1.179 1.179 0 0 1 1.035.061c.16.089.3.213.415.365l5.035 5.72c.23.26.362.61.369.975Z" fill="currentColor"/></symbol><symbol fill="none" viewBox="0 0 8 15" id="icon-prev" xmlns="http://www.w3.org/2000/svg"><path d="M0 7.212c-.002.189.03.377.093.552.063.176.157.336.277.47l5.146 5.783a1.3 1.3 0 0 0 .42.315 1.19 1.19 0 0 0 .996.006c.158-.071.302-.177.423-.31.122-.134.219-.292.285-.467a1.583 1.583 0 0 0 .007-1.105 1.463 1.463 0 0 0-.28-.47L3.11 7.231l4.148-4.72a1.44 1.44 0 0 0 .316-.47A1.571 1.571 0 0 0 7.596.89 1.452 1.452 0 0 0 7.3.405a1.284 1.284 0 0 0-.447-.314A1.179 1.179 0 0 0 5.82.152c-.16.089-.3.213-.415.365L.369 6.237c-.23.26-.362.61-.369.975Z" fill="currentColor"/></symbol><symbol fill="none" viewBox="0 0 16 16" id="icon-tel" xmlns="http://www.w3.org/2000/svg"><path d="M15.564 12.076c-.177-.198-.802-.785-1.951-1.562-1.159-.784-2.012-1.272-2.258-1.386a.124.124 0 0 0-.133.017c-.394.324-1.058.92-1.094.951-.23.208-.23.208-.418.143-.332-.114-1.36-.689-2.257-1.635-.896-.946-1.47-2.055-1.58-2.403-.061-.199-.061-.199.137-.441.03-.038.596-.737.903-1.152a.14.14 0 0 0 .017-.14c-.108-.258-.572-1.157-1.317-2.376C4.874.882 4.317.224 4.13.038a.126.126 0 0 0-.132-.031c-.66.238-1.296.543-1.9.909-.584.357-1.136.767-1.651 1.227a.144.144 0 0 0-.043.134c.071.347.41 1.8 1.462 3.81 1.073 2.054 1.817 3.105 3.393 4.759 1.576 1.653 2.606 2.483 4.559 3.613 1.91 1.107 3.29 1.464 3.62 1.538a.126.126 0 0 0 .07-.004.132.132 0 0 0 .058-.041c.436-.542.826-1.123 1.165-1.738.348-.636.637-1.306.864-2a.146.146 0 0 0-.03-.138Z" fill="currentColor"/></symbol></svg>